<svg xmlns="http://www.w3.org/2000/svg" xmlns:xlink="http://www.w3.org/1999/xlink" width="500" zoomAndPan="magnify" viewBox="0 0 375 374.999991" height="500" preserveAspectRatio="xMidYMid meet" version="1.0"><rect x="-37.5" width="450" fill="#ffffff" y="-37.499999" height="449.999989" fill-opacity="1"/><rect x="-37.5" width="450" fill="#0d9488" y="-37.499999" height="449.999989" fill-opacity="1"/><path fill="#ffffff" d="M 345.765625 303.246094 C 335.980469 293.179688 325.914062 283.042969 316.21875 273.238281 C 311.996094 268.996094 307.796875 264.753906 303.621094 260.511719 C 299.882812 256.792969 296.144531 252.96875 292.386719 249.1875 C 289.351562 246.089844 286.273438 242.988281 283.21875 239.910156 L 279.988281 236.65625 L 282.734375 233.007812 C 295.992188 215.507812 303.929688 195.128906 306.015625 173.515625 C 299.027344 171.164062 290.453125 168.261719 281.460938 165.25 C 281.460938 165.472656 281.460938 165.691406 281.4375 165.910156 C 278.933594 216.011719 237.207031 255.300781 186.421875 255.300781 C 185.167969 255.300781 183.914062 255.277344 182.640625 255.210938 C 138.800781 252.507812 103.496094 219.75 96.261719 177.804688 C 95.363281 172.636719 94.898438 167.316406 94.898438 161.910156 C 94.898438 148.5 97.734375 135.769531 102.835938 124.226562 C 117.347656 91.382812 150.257812 68.386719 188.421875 68.386719 C 222.34375 68.386719 252.75 86.394531 269.214844 114.753906 C 275.523438 116.886719 282.207031 119.128906 288.824219 121.347656 L 289.175781 121.4375 C 293.089844 122.753906 297.023438 124.074219 300.804688 125.328125 C 285.175781 77.179688 240.238281 43.742188 188.421875 43.742188 C 174.460938 43.742188 160.808594 46.183594 147.882812 50.933594 C 119.828125 61.199219 97.339844 81.554688 83.953125 106.925781 C 76.300781 121.371094 71.617188 137.460938 70.519531 154.214844 C 70.34375 156.765625 70.253906 159.335938 70.253906 161.910156 C 70.253906 219.816406 111.695312 268.820312 168.765625 278.40625 L 176.878906 279.769531 C 178.726562 279.921875 180.640625 280.054688 182.53125 280.121094 C 187.453125 280.316406 192.488281 280.1875 197.457031 279.722656 L 199.390625 279.570312 C 215.726562 278.03125 231.292969 273.238281 245.625 265.257812 L 249.582031 263.082031 L 252.351562 266.644531 C 263.894531 281.4375 275.523438 296.277344 287.132812 311.097656 C 293.96875 319.824219 300.804688 328.550781 307.621094 337.28125 C 311.359375 342.117188 316.105469 344.511719 322.636719 344.910156 C 323.164062 344.953125 323.558594 344.972656 323.976562 344.972656 C 327.867188 344.972656 331.828125 343.390625 335.410156 340.445312 C 338.070312 338.203125 340.773438 335.785156 343.390625 333.453125 L 344.90625 332.089844 C 349.238281 328.222656 351.722656 323.230469 351.898438 318 C 352.097656 312.746094 349.898438 307.511719 345.765625 303.246094 " fill-opacity="1" fill-rule="nonzero"/><path fill="#ffffff" d="M 37.410156 102.859375 C 36.53125 103.058594 35.652344 103.144531 34.792969 103.144531 C 29.605469 103.144531 25.449219 99.605469 24.460938 94.328125 C 23.296875 88.128906 26.769531 82.941406 32.949219 81.730469 C 33.738281 81.554688 34.550781 81.492188 35.34375 81.492188 C 40.511719 81.492188 44.554688 84.855469 45.632812 90.0625 C 46.886719 96.066406 43.347656 101.585938 37.410156 102.859375 Z M 45.832031 75.378906 C 41.433594 72.566406 36.246094 71.464844 31.386719 72.367188 C 27.296875 73.113281 23.582031 75.179688 20.636719 78.347656 C 13.863281 85.601562 12.941406 95.714844 18.328125 103.476562 C 23.164062 110.445312 30.375 113.433594 38.664062 111.917969 C 39.628906 111.71875 40.621094 111.5 41.632812 111.191406 L 61.328125 128.800781 C 63.066406 122.207031 65.332031 115.71875 68.101562 109.410156 L 54.40625 97.296875 C 56.648438 88.019531 53.699219 80.480469 45.832031 75.378906 Z M 341.9375 172.527344 C 341.125 172.683594 340.3125 172.769531 339.542969 172.769531 C 334.199219 172.769531 330.132812 169.207031 329.210938 163.710938 C 328.15625 157.578125 331.828125 152.367188 337.980469 151.3125 C 338.707031 151.179688 339.433594 151.113281 340.136719 151.113281 C 345.433594 151.113281 349.480469 154.609375 350.445312 159.976562 C 351.589844 166.175781 348.074219 171.320312 341.9375 172.527344 Z M 220.585938 131.394531 C 219.96875 131.503906 219.332031 131.550781 218.695312 131.550781 C 213.417969 131.550781 209.109375 127.855469 208.1875 122.558594 C 207.109375 116.378906 210.691406 111.28125 216.871094 110.136719 C 217.617188 109.980469 218.363281 109.917969 219.089844 109.917969 C 224.453125 109.917969 228.632812 113.609375 229.511719 119.105469 C 230.457031 125.195312 226.71875 130.363281 220.585938 131.394531 Z M 162.324219 217.289062 C 161.535156 217.441406 160.722656 217.53125 159.953125 217.53125 C 154.761719 217.53125 150.738281 214.144531 149.664062 208.914062 C 149.027344 205.902344 149.574219 202.953125 151.15625 200.582031 C 152.761719 198.226562 155.269531 196.625 158.28125 196.074219 C 164.347656 194.953125 169.757812 198.84375 170.835938 204.734375 C 172 210.914062 168.503906 216.078125 162.324219 217.289062 Z M 357.613281 152.28125 C 353.921875 145.730469 347.523438 141.835938 340.554688 141.835938 C 339.367188 141.835938 338.203125 141.949219 337.015625 142.167969 C 333.277344 142.847656 329.648438 144.609375 326.460938 147.289062 L 321.1875 145.441406 C 313.734375 142.894531 299.882812 138.253906 285.175781 133.328125 C 276.511719 130.429688 267.699219 127.480469 259.804688 124.820312 C 251.40625 122.007812 244.0625 119.5 238.941406 117.722656 C 237.621094 110.222656 231.839844 103.652344 224.410156 101.363281 C 221.308594 100.441406 218.144531 100.242188 215.132812 100.792969 C 210.316406 101.671875 206.117188 104.332031 202.976562 108.464844 C 197.785156 115.324219 197.082031 123.261719 200.996094 130.097656 C 198.929688 133.109375 198.074219 134.5625 197.257812 135.96875 C 196.402344 137.460938 195.523438 138.980469 193.082031 142.496094 L 182.683594 157.578125 C 176.199219 166.988281 169.339844 176.945312 162.613281 186.597656 C 159.445312 186.222656 156.390625 186.554688 153.445312 187.609375 L 109.429688 147.289062 C 108.53125 152.0625 108.089844 156.941406 108.089844 161.910156 C 108.089844 165.382812 108.308594 168.855469 108.773438 172.265625 L 140.847656 201.636719 C 140.429688 203.898438 140.011719 206.472656 140.210938 209.152344 C 140.804688 217.132812 147.179688 224.191406 155.730469 226.300781 C 157.359375 226.71875 159.007812 226.941406 160.632812 226.941406 C 161.753906 226.941406 162.917969 226.828125 164.019531 226.609375 C 168.945312 225.730469 173.230469 222.917969 176.417969 218.496094 C 181.320312 211.703125 181.871094 204.097656 178.046875 197.347656 C 184.375 188.226562 190.6875 179.078125 196.996094 169.957031 L 201.347656 163.667969 C 205.152344 158.148438 207.285156 154.808594 209.371094 151.554688 C 211.328125 148.476562 213.199219 145.53125 216.429688 140.847656 C 222.410156 141.640625 227.839844 139.816406 232.433594 135.484375 L 237.492188 137.222656 C 244.019531 139.484375 255.585938 143.355469 268.269531 147.621094 C 269.875 148.148438 271.5 148.695312 273.148438 149.246094 C 291.132812 155.269531 309.730469 161.492188 319.734375 164.988281 C 319.824219 165.40625 319.890625 165.800781 320 166.195312 C 321.667969 173.035156 326.921875 178.816406 333.761719 181.144531 C 335.847656 181.847656 338.003906 182.203125 340.136719 182.203125 L 340.160156 182.203125 C 341.300781 182.203125 342.445312 182.089844 343.542969 181.894531 C 348.074219 181.058594 352.050781 178.660156 355.109375 174.96875 C 360.800781 168.066406 361.746094 159.578125 357.613281 152.28125 " fill-opacity="1" fill-rule="nonzero"/></svg>